<?xml version="1.0" encoding="UTF-8" standalone="no"?>
<!DOCTYPE svg PUBLIC "-//W3C//DTD SVG 1.1//EN" "http://www.w3.org/Graphics/SVG/1.1/DTD/svg11.dtd">
<svg width="100%" height="100%" viewBox="0 0 406 406" version="1.1" xmlns="http://www.w3.org/2000/svg" xmlns:xlink="http://www.w3.org/1999/xlink" xml:space="preserve" xmlns:serif="http://www.serif.com/" style="fill-rule:evenodd;clip-rule:evenodd;stroke-linejoin:round;stroke-miterlimit:2;">
    <g transform="matrix(1,0,0,1,-1207,-1397)">
        <path d="M1410,1803L1389.21,1761.3C1396.01,1762.17 1402.95,1762.62 1410,1762.62C1417.05,1762.62 1423.99,1762.17 1430.79,1761.3L1410,1803ZM1508.67,1729.24L1511.5,1775.8C1511.5,1775.8 1511.5,1775.8 1511.5,1775.8L1472.66,1750.09C1485.59,1744.68 1497.68,1737.64 1508.67,1729.24ZM1311.33,1729.24C1322.32,1737.64 1334.41,1744.68 1347.34,1750.09L1308.5,1775.8C1308.5,1775.8 1308.5,1775.8 1308.5,1775.8L1311.33,1729.24ZM1410,1461C1486.72,1461 1549,1523.28 1549,1600C1549,1676.72 1486.72,1739 1410,1739C1333.28,1739 1271,1676.72 1271,1600C1271,1523.28 1333.28,1461 1410,1461ZM1259.91,1662.66C1265.32,1675.59 1272.36,1687.68 1280.76,1698.67L1234.2,1701.5C1234.2,1701.5 1234.2,1701.5 1234.2,1701.5L1259.91,1662.66ZM1585.8,1701.5L1539.24,1698.67C1547.64,1687.68 1554.68,1675.59 1560.09,1662.66L1585.8,1701.5ZM1248.7,1579.21C1247.83,1586.01 1247.38,1592.95 1247.38,1600C1247.38,1607.05 1247.83,1613.99 1248.7,1620.79L1207,1600L1248.7,1579.21ZM1613,1600L1571.3,1620.79C1572.17,1613.99 1572.62,1607.05 1572.62,1600C1572.62,1592.95 1572.17,1586.01 1571.3,1579.21L1613,1600ZM1280.76,1501.33C1272.36,1512.32 1265.32,1524.41 1259.91,1537.34L1234.2,1498.5L1280.76,1501.33ZM1585.8,1498.5L1560.09,1537.34C1554.68,1524.4 1547.64,1512.32 1539.24,1501.33L1585.8,1498.5ZM1347.34,1449.91C1334.4,1455.32 1322.32,1462.36 1311.33,1470.76L1308.5,1424.2C1308.5,1424.2 1308.5,1424.2 1308.5,1424.2L1347.34,1449.91ZM1472.56,1449.87L1511.41,1424.15C1511.41,1424.15 1511.41,1424.15 1511.41,1424.15L1508.59,1470.7C1497.59,1462.3 1485.5,1455.27 1472.56,1449.87ZM1430.79,1438.7C1423.99,1437.83 1417.05,1437.38 1410,1437.38C1402.95,1437.38 1396.01,1437.83 1389.21,1438.7L1410,1397L1430.79,1438.7Z" style="fill:rgb(255,203,0);"/>
    </g>
</svg>
